<?xml version="1.0" encoding="utf-8"?>
<!-- Generator: Adobe Illustrator 25.2.3, SVG Export Plug-In . SVG Version: 6.00 Build 0)  -->
<svg version="1.1" id="Camada_1" xmlns="http://www.w3.org/2000/svg" xmlns:xlink="http://www.w3.org/1999/xlink" x="0px" y="0px"
	 viewBox="0 0 125 156" style="enable-background:new 0 0 125 156;" xml:space="preserve">
<style type="text/css">
	.st0{fill-rule:evenodd;clip-rule:evenodd;fill:#00ACE2;}
	.st1{fill-rule:evenodd;clip-rule:evenodd;}
	.st2{fill-rule:evenodd;clip-rule:evenodd;fill:#FFFFFF;}
</style>
<path class="st0" d="M28.4,18h62.5c1.4,0,2.6,1.2,2.6,2.6v61.1c0,1.4-1.2,2.6-2.6,2.6H28.4c-1.4,0-2.6-1.2-2.6-2.6V20.6
	C25.8,19.2,27,18,28.4,18L28.4,18z"/>
<path class="st1" d="M16.7,93.5l9.5,0.1c2.8,0,5.2,2.1,5.3,5.3c0.2,3.2-1.6,6.8-6.9,6.9l-3.2,0l0,6.4h-4.6L16.7,93.5L16.7,93.5z
	 M21.5,97.1l0,5.2c0.8,0.1,2.8,0,3.4,0c3.1,0,3.2-5.1,0.1-5.2H21.5L21.5,97.1z"/>
<path class="st1" d="M42.3,93.4c5.7,0,10.2,4.4,10.2,9.9c0,5.5-4.6,9.9-10.2,9.9c-5.7,0-10.3-4.4-10.3-9.9
	C32,97.8,36.6,93.4,42.3,93.4L42.3,93.4z M42.3,97.1c3.6,0,5.5,2.8,5.5,6.2c0,3.4-1.8,6.1-5.5,6.2c-3.7,0.1-5.5-2.8-5.5-6.2
	C36.8,99.9,38.7,97.1,42.3,97.1L42.3,97.1z"/>
<path class="st1" d="M95.2,93c5.7,0,10.2,4.4,10.2,9.9c0,5.5-4.6,9.9-10.2,9.9c-5.7,0-10.3-4.4-10.3-9.9C85,97.4,89.5,93,95.2,93
	L95.2,93z M95.2,96.7c3.6,0,5.5,2.8,5.5,6.2c0,3.4-1.8,6.1-5.5,6.2c-3.7,0.1-5.5-2.8-5.5-6.2C89.7,99.5,91.7,96.7,95.2,96.7
	L95.2,96.7z"/>
<path class="st1" d="M53.7,93.5l9.5,0.1c2.8,0,5.2,2.1,5.3,5.3c0.1,2.3-0.7,4.5-3.1,5.6l0,0l6.2,7.7l-6.1,0l-5-6.8l-2.1,0l0,6.8
	h-4.6L53.7,93.5L53.7,93.5z M58.5,97v5.2c0.8,0.1,2.8,0,3.4,0c3.1,0,3.2-5.2,0.1-5.3H58.5L58.5,97z"/>
<polygon class="st1" points="69.3,93.5 85.7,93.5 85.7,97.5 79.9,97.5 79.9,112.2 75.2,112.2 75.2,97.5 69.3,97.5 69.3,93.5 "/>
<path class="st1" d="M95.9,116.2c4.8,0,8.6,3.7,8.6,8.3c0,4.6-3.9,8.3-8.6,8.3c-4.8,0-8.6-3.7-8.6-8.3
	C87.3,119.9,91.1,116.2,95.9,116.2L95.9,116.2z M95.9,119.3c3,0,4.6,2.3,4.6,5.2c0,2.9-1.5,5.1-4.6,5.2c-3.1,0.1-4.6-2.3-4.6-5.2
	C91.3,121.6,92.9,119.3,95.9,119.3L95.9,119.3z"/>
<path class="st1" d="M73.5,116.3l8.4,0.1c2.5,0,4.5,1.8,4.7,4.6c0.1,2-0.6,3.9-2.7,5l0,0l5.4,6.8l-5.4,0l-4.4-6l-1.8,0l0,6h-4.1
	L73.5,116.3L73.5,116.3z M77.6,119.4v4.6c0.7,0.1,2.4,0,3,0c2.7,0,2.8-4.5,0.1-4.6H77.6L77.6,119.4z"/>
<path class="st1" d="M26.6,120.7l1.5-3.2c0,0-3.8-2.1-7.5-1.1c-3.7,1-5.1,5.9-2,8.1c3.1,2.2,5.7,1.7,5.5,3.6c-0.3,2.7-4.9,0.9-7,0
	l-1.2,3.3c0,0,1.9,1.2,5.3,1.5c3.4,0.3,6.7-1.6,6.9-4.9c0.2-5.6-8.5-4.4-7-7.7C21.9,118.8,24.6,119.7,26.6,120.7L26.6,120.7z"/>
<polygon class="st1" points="40.3,116.6 40.3,120.1 33.9,120.1 33.9,122.6 39.7,122.6 39.7,126.1 33.9,126.1 33.9,128.9 40.8,128.9 
	40.8,132.3 29.7,132.4 29.7,116.6 40.3,116.6 "/>
<path class="st1" d="M54.2,120.6c-5.4-2.2-8.8,0.7-9.2,3.7c-0.3,2.9,2.1,5.8,7.3,4.8l0-5.5h4l0,7.5c-6.6,4.2-15.3,0.4-15.1-6.4
	c0.3-9.2,10.5-9.5,14.5-7.2L54.2,120.6L54.2,120.6z"/>
<path class="st1" d="M61.6,116.3l-4,0v9.7c-0.1,4.6,3.6,6.8,7.4,6.8c3.7,0,7.5-2.3,7.4-6.8v-9.7l-4,0l0,9.5c0.1,2.3-1.1,3.4-3.3,3.4
	c-2.2,0-3.4-1.1-3.3-3.4L61.6,116.3L61.6,116.3z"/>
<path class="st2" d="M29.5,22.3c2.4-0.1,31-1.1,47.5,15.1c0,0-13.1-9.8-42.6-5.5C33,28.1,31.3,24.9,29.5,22.3L29.5,22.3z"/>
<path class="st2" d="M84.7,48.2C75.8,38.1,47,43,38.1,45.5c-0.6-3.5-1.3-6.7-2.2-9.6C42.3,34.9,79,30.1,84.7,48.2L84.7,48.2z"/>
<path class="st2" d="M38.7,50c7-1.9,46.5-11.9,50.5,6.9c-12.5-8.4-42.2,1-50,3.9c0.1-2.4,0-4.9-0.2-7.6C38.9,52.1,38.8,51.1,38.7,50
	L38.7,50z"/>
<path class="st2" d="M38.7,66.1c16.9-7,69.3-20.2,46.4,9c5-9.2,2.1-10.4-4.6-10c-12.9,0.7-39.4,12-45.9,15.2
	C36.5,76.7,38,72,38.7,66.1L38.7,66.1z"/>
</svg>
