<?xml version="1.0" encoding="utf-8"?>
<!-- Generator: Adobe Illustrator 25.2.3, SVG Export Plug-In . SVG Version: 6.00 Build 0)  -->
<svg version="1.1" id="Camada_1" xmlns="http://www.w3.org/2000/svg" xmlns:xlink="http://www.w3.org/1999/xlink" x="0px" y="0px"
	 viewBox="0 0 194.5 89.6" style="enable-background:new 0 0 194.5 89.6;" xml:space="preserve">
<style type="text/css">
	.st0{fill-rule:evenodd;clip-rule:evenodd;fill:#00ACE2;}
	.st1{fill-rule:evenodd;clip-rule:evenodd;}
	.st2{fill-rule:evenodd;clip-rule:evenodd;fill:#FFFFFF;}
</style>
<path class="st0" d="M113.7,11.4h62.5c1.4,0,2.6,1.2,2.6,2.6V75c0,1.4-1.2,2.6-2.6,2.6h-62.5c-1.4,0-2.6-1.2-2.6-2.6V13.9
	C111.1,12.5,112.3,11.4,113.7,11.4L113.7,11.4z"/>
<path class="st1" d="M14.5,27.2l9.5,0.1c2.8,0,5.2,2.1,5.3,5.3c0.2,3.2-1.6,6.8-6.9,6.9l-3.2,0l0,6.4h-4.6L14.5,27.2L14.5,27.2z
	 M19.2,30.8l0,5.2c0.8,0.1,2.8,0,3.4,0c3.1,0,3.2-5.1,0.1-5.2H19.2L19.2,30.8z"/>
<path class="st1" d="M40,27.1c5.7,0,10.2,4.4,10.2,9.9c0,5.5-4.6,9.9-10.2,9.9c-5.7,0-10.3-4.4-10.3-9.9
	C29.8,31.5,34.4,27.1,40,27.1L40,27.1z M40.1,30.8c3.6,0,5.5,2.8,5.5,6.2c0,3.4-1.8,6.1-5.5,6.2c-3.7,0.1-5.5-2.8-5.5-6.2
	C34.5,33.6,36.5,30.8,40.1,30.8L40.1,30.8z"/>
<path class="st1" d="M93,26.6c5.7,0,10.2,4.4,10.2,9.9c0,5.5-4.6,9.9-10.2,9.9c-5.7,0-10.3-4.4-10.3-9.9
	C82.7,31.1,87.3,26.6,93,26.6L93,26.6z M93,30.4c3.6,0,5.5,2.8,5.5,6.2c0,3.4-1.8,6.1-5.5,6.2c-3.7,0.1-5.5-2.8-5.5-6.2
	C87.5,33.1,89.4,30.4,93,30.4L93,30.4z"/>
<path class="st1" d="M51.5,27.2l9.5,0.1c2.8,0,5.2,2.1,5.3,5.3c0.1,2.3-0.7,4.5-3.1,5.6l0,0l6.2,7.7l-6.1,0l-5-6.8l-2.1,0l0,6.8
	h-4.6L51.5,27.2L51.5,27.2z M56.2,30.7v5.2c0.8,0.1,2.8,0,3.4,0c3.1,0,3.2-5.2,0.1-5.3H56.2L56.2,30.7z"/>
<polygon class="st1" points="67.1,27.2 83.5,27.2 83.5,31.2 77.7,31.2 77.7,45.9 73,45.9 73,31.2 67.1,31.2 67.1,27.2 "/>
<path class="st1" d="M93.6,49.8c4.8,0,8.6,3.7,8.6,8.3c0,4.6-3.9,8.3-8.6,8.3c-4.8,0-8.6-3.7-8.6-8.3C85,53.6,88.9,49.8,93.6,49.8
	L93.6,49.8z M93.7,53c3,0,4.6,2.3,4.6,5.2c0,2.9-1.5,5.1-4.6,5.2c-3.1,0.1-4.6-2.3-4.6-5.2C89,55.3,90.7,53,93.7,53L93.7,53z"/>
<path class="st1" d="M71.2,49.9l8.4,0.1c2.5,0,4.5,1.8,4.7,4.6c0.1,2-0.6,3.9-2.7,5l0,0l5.4,6.8l-5.4,0l-4.4-6l-1.8,0l0,6h-4.1
	L71.2,49.9L71.2,49.9z M75.4,53v4.6c0.7,0.1,2.4,0,3,0c2.7,0,2.8-4.5,0.1-4.6H75.4L75.4,53z"/>
<path class="st1" d="M24.4,54.3l1.5-3.2c0,0-3.8-2.1-7.5-1.1c-3.7,1-5.1,5.9-2,8.1c3.1,2.2,5.7,1.7,5.5,3.6c-0.3,2.7-4.9,0.9-7,0
	L13.8,65c0,0,1.9,1.2,5.3,1.5c3.4,0.3,6.7-1.6,6.9-4.9c0.2-5.6-8.5-4.4-7-7.7C19.7,52.5,22.3,53.4,24.4,54.3L24.4,54.3z"/>
<polygon class="st1" points="38,50.3 38,53.8 31.6,53.8 31.6,56.3 37.5,56.3 37.5,59.7 31.6,59.7 31.6,62.6 38.5,62.6 38.5,66 
	27.5,66 27.5,50.3 38,50.3 "/>
<path class="st1" d="M52,54.2c-5.4-2.2-8.8,0.7-9.2,3.7c-0.3,2.9,2.1,5.8,7.3,4.8l0-5.5h4l0,7.5c-6.6,4.2-15.3,0.4-15.1-6.4
	c0.3-9.2,10.5-9.5,14.5-7.2L52,54.2L52,54.2z"/>
<path class="st1" d="M59.4,50l-4,0v9.7c-0.1,4.6,3.6,6.8,7.4,6.8c3.7,0,7.5-2.3,7.4-6.8v-9.7l-4,0l0,9.5c0.1,2.3-1.1,3.4-3.3,3.4
	c-2.2,0-3.4-1.1-3.3-3.4L59.4,50L59.4,50z"/>
<path class="st2" d="M114.9,15.6c2.4-0.1,31-1.1,47.5,15.1c0,0-13.1-9.8-42.6-5.5C118.4,21.5,116.7,18.2,114.9,15.6L114.9,15.6z"/>
<path class="st2" d="M170.1,41.5c-8.9-10.1-37.8-5.1-46.6-2.7c-0.6-3.5-1.3-6.7-2.2-9.6C127.7,28.3,164.4,23.5,170.1,41.5
	L170.1,41.5z"/>
<path class="st2" d="M124,43.4c7-1.9,46.5-11.9,50.5,6.9c-12.5-8.4-42.2,1-50,3.9c0.1-2.4,0-4.9-0.2-7.6
	C124.2,45.5,124.1,44.4,124,43.4L124,43.4z"/>
<path class="st2" d="M124.1,59.5c16.9-7,69.3-20.2,46.4,9c5-9.2,2.1-10.4-4.6-10c-12.9,0.7-39.4,12-45.9,15.2
	C121.8,70,123.4,65.4,124.1,59.5L124.1,59.5z"/>
</svg>
