<?xml version="1.0" encoding="utf-8"?>
<!-- Generator: Adobe Illustrator 25.2.3, SVG Export Plug-In . SVG Version: 6.00 Build 0)  -->
<svg version="1.1" id="Camada_1" xmlns="http://www.w3.org/2000/svg" xmlns:xlink="http://www.w3.org/1999/xlink" x="0px" y="0px"
	 viewBox="0 0 75.9 72.1" style="enable-background:new 0 0 75.9 72.1;" xml:space="preserve">
<style type="text/css">
	.st0{fill-rule:evenodd;clip-rule:evenodd;fill:#00ACE2;}
	.st1{fill-rule:evenodd;clip-rule:evenodd;}
	.st2{fill-rule:evenodd;clip-rule:evenodd;fill:#FFFFFF;}
</style>
<path class="st0" d="M6.5,3.8H69c1.4,0,2.6,1.2,2.6,2.6v61.1c0,1.4-1.2,2.6-2.6,2.6H6.5C5.1,70,4,68.9,4,67.5V6.4
	C4,5,5.1,3.8,6.5,3.8L6.5,3.8z"/>
<path class="st1" d="M-92.7,19.7l9.5,0.1c2.8,0,5.2,2.1,5.3,5.3c0.2,3.2-1.6,6.8-6.9,6.9l-3.2,0l0,6.4h-4.6L-92.7,19.7L-92.7,19.7z
	 M-87.9,23.3l0,5.2c0.8,0.1,2.8,0,3.4,0c3.1,0,3.2-5.1,0.1-5.2H-87.9L-87.9,23.3z"/>
<path class="st1" d="M-67.1,19.5c5.7,0,10.2,4.4,10.2,9.9c0,5.5-4.6,9.9-10.2,9.9c-5.7,0-10.3-4.4-10.3-9.9
	C-77.4,24-72.8,19.5-67.1,19.5L-67.1,19.5z M-67.1,23.3c3.6,0,5.5,2.8,5.5,6.2c0,3.4-1.8,6.1-5.5,6.2c-3.7,0.1-5.5-2.8-5.5-6.2
	C-72.6,26-70.7,23.3-67.1,23.3L-67.1,23.3z"/>
<path class="st1" d="M-14.2,19.1C-8.5,19.1-4,23.6-4,29c0,5.5-4.6,9.9-10.2,9.9c-5.7,0-10.3-4.4-10.3-9.9
	C-24.5,23.6-19.9,19.1-14.2,19.1L-14.2,19.1z M-14.2,22.8c3.6,0,5.5,2.8,5.5,6.2c0,3.4-1.8,6.1-5.5,6.2c-3.7,0.1-5.5-2.8-5.5-6.2
	C-19.7,25.6-17.8,22.8-14.2,22.8L-14.2,22.8z"/>
<path class="st1" d="M-55.7,19.6l9.5,0.1c2.8,0,5.2,2.1,5.3,5.3c0.1,2.3-0.7,4.5-3.1,5.6l0,0l6.2,7.7l-6.1,0l-5-6.8l-2.1,0l0,6.8
	h-4.6L-55.7,19.6L-55.7,19.6z M-50.9,23.2v5.2c0.8,0.1,2.8,0,3.4,0c3.1,0,3.2-5.2,0.1-5.3H-50.9L-50.9,23.2z"/>
<polygon class="st1" points="-40.1,19.7 -23.7,19.7 -23.7,23.7 -29.5,23.7 -29.5,38.4 -34.2,38.4 -34.2,23.7 -40.1,23.7 -40.1,19.7 
	"/>
<path class="st1" d="M-13.5,42.3c4.8,0,8.6,3.7,8.6,8.3c0,4.6-3.9,8.3-8.6,8.3c-4.8,0-8.6-3.7-8.6-8.3C-22.2,46-18.3,42.3-13.5,42.3
	L-13.5,42.3z M-13.5,45.4c3,0,4.6,2.3,4.6,5.2c0,2.9-1.5,5.1-4.6,5.2c-3.1,0.1-4.6-2.3-4.6-5.2C-18.1,47.8-16.5,45.4-13.5,45.4
	L-13.5,45.4z"/>
<path class="st1" d="M-35.9,42.4l8.4,0.1c2.5,0,4.5,1.8,4.7,4.6c0.1,2-0.6,3.9-2.7,5l0,0l5.4,6.8l-5.4,0l-4.4-6l-1.8,0l0,6h-4.1
	L-35.9,42.4L-35.9,42.4z M-31.8,45.5v4.6c0.7,0.1,2.4,0,3,0c2.7,0,2.8-4.5,0.1-4.6H-31.8L-31.8,45.5z"/>
<path class="st1" d="M-82.8,46.8l1.5-3.2c0,0-3.8-2.1-7.5-1.1c-3.7,1-5.1,5.9-2,8.1c3.1,2.2,5.7,1.7,5.5,3.6c-0.3,2.7-4.9,0.9-7,0
	l-1.2,3.3c0,0,1.9,1.2,5.3,1.5c3.4,0.3,6.7-1.6,6.9-4.9c0.2-5.6-8.5-4.4-7-7.7C-87.5,45-84.8,45.8-82.8,46.8L-82.8,46.8z"/>
<polygon class="st1" points="-69.1,42.8 -69.1,46.2 -75.6,46.2 -75.6,48.8 -69.7,48.8 -69.7,52.2 -75.6,52.2 -75.6,55 -68.7,55 
	-68.7,58.5 -79.7,58.5 -79.7,42.8 -69.1,42.8 "/>
<path class="st1" d="M-55.2,46.7c-5.4-2.2-8.8,0.7-9.2,3.7c-0.3,2.9,2.1,5.8,7.3,4.8l0-5.5h4l0,7.5c-6.6,4.2-15.3,0.4-15.1-6.4
	c0.3-9.2,10.5-9.5,14.5-7.2L-55.2,46.7L-55.2,46.7z"/>
<path class="st1" d="M-47.8,42.4l-4,0v9.7c-0.1,4.6,3.6,6.8,7.4,6.8c3.7,0,7.5-2.3,7.4-6.8v-9.7l-4,0l0,9.5c0.1,2.3-1.1,3.4-3.3,3.4
	c-2.2,0-3.4-1.1-3.3-3.4L-47.8,42.4L-47.8,42.4z"/>
<path class="st2" d="M7.7,8.1C10.1,8,38.8,7,55.2,23.2c0,0-13.1-9.8-42.6-5.5C11.2,13.9,9.5,10.7,7.7,8.1L7.7,8.1z"/>
<path class="st2" d="M62.9,34c-8.9-10.1-37.8-5.1-46.6-2.7c-0.6-3.5-1.3-6.7-2.2-9.6C20.5,20.7,57.2,16,62.9,34L62.9,34z"/>
<path class="st2" d="M16.8,35.9c7-1.9,46.5-11.9,50.5,6.9c-12.5-8.4-42.2,1-50,3.9c0.1-2.4,0-4.9-0.2-7.6C17,38,16.9,36.9,16.8,35.9
	L16.8,35.9z"/>
<path class="st2" d="M16.9,51.9c16.9-7,69.3-20.2,46.4,9c5-9.2,2.1-10.4-4.6-10c-12.9,0.7-39.4,12-45.9,15.2
	C14.6,62.5,16.2,57.8,16.9,51.9L16.9,51.9z"/>
</svg>
